<?xml version="1.0" encoding="iso-8859-1"?>
<!-- Generator: Adobe Illustrator 18.0.0, SVG Export Plug-In . SVG Version: 6.00 Build 0)  -->
<!DOCTYPE svg PUBLIC "-//W3C//DTD SVG 1.1//EN" "http://www.w3.org/Graphics/SVG/1.1/DTD/svg11.dtd">
<svg version="1.1" id="Capa_1" xmlns="http://www.w3.org/2000/svg" xmlns:xlink="http://www.w3.org/1999/xlink" x="0px" y="0px"
	 viewBox="0 0 297 297" style="enable-background:new 0 0 297 297;" xml:space="preserve">
<g>
	<path d="M228.067,109.25c-18.829-27.5-41.819-44.6-65.871-49.334c17.418-5.762,30.025-22.188,30.025-41.512
		C192.222,0.889,179.935,0,177.472,0c-4.451,0-8.573,1.762-13.348,3.803c-4.865,2.078-10.38,4.434-15.624,4.434
		c-5.244,0-10.759-2.355-15.625-4.436C128.102,1.762,123.979,0,119.528,0c-2.464,0-14.75,0.889-14.75,18.404
		c0,19.324,12.607,35.75,30.025,41.512C110.752,64.65,87.762,81.75,68.933,109.25c-19.282,28.162-31.261,64.064-31.261,93.699
		c0,29.504,11.566,54.002,33.448,70.846C90.842,288.977,117.6,297,148.5,297c30.9,0,57.658-8.023,77.38-23.205
		c21.882-16.844,33.448-41.342,33.448-70.846C259.328,173.314,247.35,137.412,228.067,109.25z M125.523,22.773
		c5.935,2.531,13.9,5.799,22.977,5.799c9.076,0,17.042-3.268,22.977-5.799c-2.053,10.814-11.574,19.016-22.977,19.016
		C137.098,41.789,127.576,33.588,125.523,22.773z M148.5,276.664c-43.747,0-90.493-19.365-90.493-73.715
		c0-48.986,40.541-124.047,90.493-124.047s90.493,75.061,90.493,124.047C238.993,257.299,192.247,276.664,148.5,276.664z"/>
	<path d="M178.954,113.816c-6.699,0-16.561,2.146-24.354,8.463v-2.363c0-3.369-2.732-6.1-6.101-6.1c-3.369,0-6.101,2.73-6.101,6.1
		v2.363c-7.793-6.316-17.654-8.463-24.353-8.463c-3.369,0-6.102,2.73-6.102,6.1c0,10.951,3.434,18.846,8.382,24.436
		c-0.791-0.055-1.556-0.082-2.28-0.082c-3.369,0-6.102,2.732-6.102,6.102c0,10.951,3.434,18.846,8.383,24.436
		c-0.792-0.055-1.557-0.082-2.281-0.082c-3.369,0-6.102,2.732-6.102,6.102c0,24.727,17.482,33.889,30.455,36.025v31.508
		c0,3.369,2.732,6.102,6.101,6.102c3.369,0,6.101-2.732,6.101-6.102v-31.508c12.973-2.137,30.455-11.299,30.455-36.025
		c0-3.369-2.732-6.102-6.102-6.102c-0.725,0-1.49,0.029-2.281,0.082c4.949-5.59,8.383-13.484,8.383-24.436
		c0-3.369-2.732-6.102-6.102-6.102c-0.725,0-1.489,0.029-2.281,0.082c4.949-5.588,8.383-13.484,8.383-24.436
		C185.056,116.547,182.323,113.816,178.954,113.816z M172.087,126.982c-2.505,10.664-10.643,14.754-16.72,16.32
		C157.875,132.635,166.018,128.547,172.087,126.982z M172.087,157.436c-2.505,10.666-10.643,14.756-16.72,16.322
		C157.875,163.09,166.019,159,172.087,157.436z M141.616,173.729c-6.017-1.584-14.155-5.678-16.686-16.26
		C130.945,159.051,139.085,163.145,141.616,173.729z M141.616,143.273c-6.017-1.584-14.155-5.678-16.686-16.26
		C130.945,128.598,139.085,132.691,141.616,143.273z M124.93,187.924c6.016,1.582,14.155,5.676,16.686,16.258
		C135.6,202.6,127.461,198.506,124.93,187.924z M155.367,204.211c2.508-10.668,10.65-14.756,16.72-16.32
		C169.582,198.557,161.444,202.645,155.367,204.211z"/>
</g>
<g>
</g>
<g>
</g>
<g>
</g>
<g>
</g>
<g>
</g>
<g>
</g>
<g>
</g>
<g>
</g>
<g>
</g>
<g>
</g>
<g>
</g>
<g>
</g>
<g>
</g>
<g>
</g>
<g>
</g>
</svg>
