<?xml version="1.0" encoding="iso-8859-1"?>
<!-- Generator: Adobe Illustrator 18.0.0, SVG Export Plug-In . SVG Version: 6.00 Build 0)  -->
<!DOCTYPE svg PUBLIC "-//W3C//DTD SVG 1.1//EN" "http://www.w3.org/Graphics/SVG/1.1/DTD/svg11.dtd">
<svg version="1.1" id="Capa_1" xmlns="http://www.w3.org/2000/svg" xmlns:xlink="http://www.w3.org/1999/xlink" x="0px" y="0px"
	 viewBox="0 0 46.709 46.709" style="enable-background:new 0 0 46.709 46.709;" xml:space="preserve">
<g>
	<path style="fill:#1D1D1B;" d="M37.701,4.872c-5.467-1.69-11.343-1.505-16.994-1.622C14.575,3.123,8.436,2.373,2.577,4.569
		C2.173,4.721,2.075,5.131,2.18,5.451c-1.925,1.738-2.438,3.514-2.067,5.212c-0.26,4.984,0.623,10.037,2.603,14.629
		c0.844,1.958,1.915,3.843,3.189,5.555c2.39,3.212,8.177,6.428,6.98,11.267c-0.116,0.469,0.517,0.685,0.739,0.336
		c0.037-0.006,0.071,0,0.111-0.024c0.846-0.508,1.546-1.3,2.205-2.071c0.528,0.88,1.145,1.678,1.885,2.413
		c0.192,0.191,0.551,0.212,0.74,0c0.53-0.593,1.029-1.227,1.382-1.937c0.311,1.061,0.926,1.965,1.837,2.65
		c0.405,0.304,0.974-0.111,0.973-0.558c-0.002-0.783,0.179-1.532,0.446-2.26c0.809,0.962,1.639,1.892,2.498,2.822
		c0.463,0.501,1.262-0.026,1.107-0.644c-1.233-4.904,6.834-6.605,9.664-8.811c1.646-1.283,2.999-2.891,4.208-4.582
		c2.69-3.762,6.136-8.945,5.677-13.77C48.13,10.969,42.902,6.48,37.701,4.872z M2.885,5.829c0.013-0.004,0.024-0.001,0.037-0.006
		c6.548-2.455,13.92-1.384,20.744-0.901c5.244,0.371,27.41,2.049,19.027,12.32c-4.42,5.416-15.852,3.942-21.983,3.202
		C14.767,19.728-4.002,15.034,2.885,5.829z M32.519,34.512c-3.14,1.622-7.067,3.19-7.218,6.787c-0.71-0.657-1.427-1.304-2.182-1.926
		c-0.306-0.253-0.658-0.007-0.641,0.299c-0.098,0.044-0.189,0.106-0.252,0.212c-0.32,0.533-0.519,1.1-0.636,1.688
		c-0.435-0.496-0.786-1.064-0.991-1.694c-0.1-0.307-0.378-0.359-0.586-0.253c-0.186-0.079-0.427-0.045-0.559,0.157
		c-0.412,0.634-0.785,1.249-1.257,1.821c-0.656-0.772-1.212-1.6-1.674-2.513c-0.159-0.315-0.656-0.376-0.889-0.115
		c-0.564,0.633-1.205,1.297-1.719,2.017c0.415-4.35-3.329-6.646-6.183-9.81C3.027,25.968,1.63,19.428,1.009,12.743
		c2.256,3.547,7.766,6.472,11.015,7.511c5.505,1.761,11.424,2.248,17.174,2.346c4.83,0.082,10.299-0.134,14.266-3.274
		c0.504-0.399,0.937-0.802,1.316-1.206C42.974,24.479,37.909,31.728,32.519,34.512z"/>
	<path style="fill:#1D1D1B;" d="M29.297,12.787c-1.485,0.616-2.978,0.963-4.594,0.791c-0.71-0.076-1.386-0.227-2.058-0.477
		c0.054,0.02-3.098-1.664-2.402-1.849c0.291-0.077,0.24-0.553-0.072-0.535c-0.524,0.03-0.709,0.319-0.686,0.852
		c0.042,0.973,1.356,1.628,2.084,1.989c2.472,1.229,5.573,1.164,7.957-0.226C29.809,13.169,29.618,12.654,29.297,12.787z"/>
	<path style="fill:#1D1D1B;" d="M28.311,11.035c-1.876-1.044-3.852-1.766-6.02-1.849c-1.637-0.063-4.021-0.023-5.204,1.336
		c-2.726,3.132,2.534,4.613,4.689,4.988c0.208,0.036,0.298-0.259,0.089-0.322c-0.968-0.293-2.335-0.577-3.109-1.233
		c-0.2-0.11-0.4-0.219-0.6-0.329l0.108-2.787c0.449-0.584,2.296-0.639,2.868-0.685c2.405-0.192,4.846,0.231,7.079,1.123
		C28.349,11.332,28.439,11.107,28.311,11.035z"/>
	<path style="fill:#1D1D1B;" d="M28.82,8.977c-0.313,0.028-0.433,0.513-0.079,0.587c1.245,0.262,2.367,0.878,2.613,2.241
		c0.251,1.392-0.606,2.553-1.883,3.026c-1.608,0.597-3.373,0.504-4.997,1.094c-0.257,0.093-0.156,0.455,0.112,0.407
		c2.45-0.437,6.045,0.204,7.345-2.56C32.964,11.572,31.36,8.751,28.82,8.977z"/>
	<path style="fill:#1D1D1B;" d="M26.191,7.941c-3.623-1.094-10.663-1.861-13.419,1.462c-2.389,2.879,0.105,5.298,2.994,6.096
		c0.25,0.069,0.436-0.325,0.183-0.434c-1.699-0.733-6.383-2.523-1.927-5.921c1.243-0.948,3.227-0.939,4.72-0.986
		c2.47-0.079,4.93,0.225,7.396,0.18C26.366,8.334,26.41,8.008,26.191,7.941z"/>
	<path style="fill:#1D1D1B;" d="M31.485,7.971c-0.42-0.047-0.491,0.62-0.098,0.725c4.351,1.167,2.971,5.986-0.088,7.539
		c-1.681,0.854-3.577,0.897-5.41,0.767c-2.714-0.191-5.407-0.662-8.12-0.89c-0.206-0.017-0.252,0.32-0.049,0.362
		c4.79,1,12.092,3.229,15.991-0.965C36.102,12.938,35.271,8.399,31.485,7.971z"/>
	<path style="fill:#1D1D1B;" d="M29.538,6.935c-6.206-1.23-14.019-3.245-19.767,0.424c-4.302,2.746-2.617,6.949,1.636,8.616
		c0.288,0.113,0.482-0.357,0.21-0.498c-3.238-1.205-3.23-4.063,0.026-8.573c1.196-0.396,2.425-0.631,3.69-0.706
		c1.294-0.102,2.61-0.047,3.901,0.058c3.441,0.282,6.772,1.253,10.238,1.179C29.747,7.43,29.83,6.993,29.538,6.935z"/>
	<path style="fill:#1D1D1B;" d="M35.611,8.552c-0.341-0.208-0.757,0.3-0.437,0.566c3.626,3.012,1.21,7.566-2.533,8.834
		c-2.272,0.769-4.734,0.44-7.048,0.178c-3.821-0.434-7.629-0.994-11.464-1.293c-0.205-0.016-0.254,0.324-0.049,0.363
		c5.983,1.122,16,4.25,21.43,0.163C38.519,15.099,39.046,10.649,35.611,8.552z"/>
	<path style="fill:#1D1D1B;" d="M9.483,4.737C7.422,5.275,5.179,6.282,4.384,8.435c-0.585,1.586-0.244,3.593,1.383,4.366
		c0.356,0.169,0.643-0.309,0.311-0.531c-1.593-1.065-1.3-3.234-0.097-4.462c1.027-1.048,2.533-1.661,3.801-2.363
		C10.168,5.23,9.904,4.628,9.483,4.737z"/>
	<path style="fill:#1D1D1B;" d="M40.048,9.861c-0.211-0.305-0.667-0.118-0.594,0.251c0.764,3.859-0.479,7.675-4.712,8.604
		c-0.342,0.075-0.274,0.661,0.084,0.622C39.135,18.864,42.871,13.951,40.048,9.861z"/>
</g>
<g>
</g>
<g>
</g>
<g>
</g>
<g>
</g>
<g>
</g>
<g>
</g>
<g>
</g>
<g>
</g>
<g>
</g>
<g>
</g>
<g>
</g>
<g>
</g>
<g>
</g>
<g>
</g>
<g>
</g>
</svg>
