<?xml version="1.0" encoding="iso-8859-1"?>
<!-- Generator: Adobe Illustrator 19.0.0, SVG Export Plug-In . SVG Version: 6.00 Build 0)  -->
<svg version="1.1" id="Capa_1" xmlns="http://www.w3.org/2000/svg" xmlns:xlink="http://www.w3.org/1999/xlink" x="0px" y="0px"
	 viewBox="0 0 470 470" style="enable-background:new 0 0 470 470;" xml:space="preserve">
<g>
	<path d="M122.96,367.97c-4.142,0-7.5,3.357-7.5,7.5v55.261c0,4.143,3.358,7.5,7.5,7.5s7.5-3.357,7.5-7.5V375.47
		C130.46,371.327,127.102,367.97,122.96,367.97z"/>
	<path d="M122.96,213.811c4.142,0,7.5-3.357,7.5-7.5v-55.25c0-5.675,1.788-11.06,5.173-15.578c2.697-3.604,6.292-6.469,10.395-8.284
		c3.788-1.676,5.5-6.105,3.824-9.893c-1.676-3.789-6.108-5.499-9.894-3.824c-6.452,2.854-12.1,7.354-16.333,13.011
		c-5.343,7.13-8.167,15.625-8.167,24.568v55.25C115.46,210.453,118.818,213.811,122.96,213.811z"/>
	<path d="M302.291,82.84l-134.584,0.001c-4.142,0-7.499,3.357-7.5,7.499c0,4.144,3.358,7.501,7.5,7.501l134.584-0.001
		c4.142,0,7.5-3.358,7.5-7.5C309.791,86.197,306.433,82.84,302.291,82.84z"/>
	<path d="M197.707,42.613h73.557c4.142,0,7.5-3.357,7.5-7.5s-3.358-7.5-7.5-7.5h-73.557c-4.142,0-7.5,3.357-7.5,7.5
		S193.565,42.613,197.707,42.613z"/>
	<path d="M392.347,231.006c-1.407-1.406-3.314-2.196-5.304-2.196h-2.5v-77.751c0-29.469-17.764-55.34-44.751-66.024l0-22.295
		c0-0.025,0.001-42.757,0.001-42.757C339.793,8.964,330.829,0,319.812,0H150.188c-11.018,0-19.981,8.964-19.981,19.982v65.053
		c-26.987,10.684-44.75,36.555-44.75,66.023v77.751c-1.601,0-2.5,0-2.5,0c-1.989,0-3.897,0.79-5.303,2.196
		c-1.407,1.407-2.197,3.314-2.197,5.304v109.164c0,4.143,3.358,7.5,7.5,7.5h2.5v77.755c0,21.654,17.617,39.271,39.271,39.271
		h220.544c21.654,0,39.271-17.617,39.271-39.271v-77.755h2.5c4.142,0,7.5-3.357,7.5-7.5V236.31
		C394.543,234.32,393.753,232.413,392.347,231.006z M345.272,455H124.728c-13.383,0-24.271-10.888-24.271-24.271v-77.755h49.797
		v0.166c0,12.406,10.093,22.5,22.5,22.5h124.493c12.407,0,22.5-10.094,22.5-22.5v-0.166h49.797v77.755
		C369.543,444.112,358.655,455,345.272,455z M139.922,97.506c3.143-0.971,5.285-3.876,5.285-7.165V42.613h22.5
		c4.142,0,7.5-3.357,7.5-7.5s-3.358-7.5-7.5-7.5h-22.5v-7.631c0-2.747,2.235-4.982,4.981-4.982h169.623
		c2.747,0,4.981,2.235,4.981,4.982c0,0.348,0,17.809,0,35.244H220.932c-4.142,0-7.5,3.357-7.5,7.5s3.358,7.5,7.5,7.5h103.86
		c0,10.684-0.001,19.08-0.001,20.011c0,0.034,0.007,0.068,0.007,0.103c-0.002,3.243,2.097,6.183,5.278,7.165
		c23.606,7.298,39.467,28.819,39.467,53.554v77.752l-49.797,0.003v-0.167c0-12.406-10.093-22.5-22.5-22.5H172.753
		c-12.407,0-22.5,10.094-22.5,22.5v0.167c-11.55-0.001-34.007-0.002-49.797-0.003v-77.752
		C100.457,126.324,116.316,104.804,139.922,97.506z M379.543,337.974h-59.797v-94.16l59.797-0.004V337.974z M90.457,337.974V243.81
		c0,0,42.254,0.003,59.797,0.004v94.16H90.457z M165.253,345.483c0-0.02,0-109.16,0-109.16c0-0.02,0-7.677,0-7.677
		c0-4.136,3.365-7.5,7.5-7.5h124.493c4.135,0,7.5,3.364,7.5,7.5v7.647c0,0.039,0,109.16,0,109.16c0,0.039,0,7.686,0,7.686
		c0,4.136-3.365,7.5-7.5,7.5H172.753c-4.135,0-7.5-3.364-7.5-7.5V345.483z"/>
	<path d="M202.753,330.641h64.493c4.142,0,7.5-3.357,7.5-7.5v-64.493c0-4.143-3.358-7.5-7.5-7.5h-64.493c-4.142,0-7.5,3.357-7.5,7.5
		v64.493C195.253,327.283,198.611,330.641,202.753,330.641z M210.253,266.147h49.493v49.493h-49.493V266.147z"/>
</g>
<g>
</g>
<g>
</g>
<g>
</g>
<g>
</g>
<g>
</g>
<g>
</g>
<g>
</g>
<g>
</g>
<g>
</g>
<g>
</g>
<g>
</g>
<g>
</g>
<g>
</g>
<g>
</g>
<g>
</g>
</svg>
