<?xml version="1.0" encoding="iso-8859-1"?>
<!-- Generator: Adobe Illustrator 18.1.1, SVG Export Plug-In . SVG Version: 6.00 Build 0)  -->
<svg version="1.1" id="Capa_1" xmlns="http://www.w3.org/2000/svg" xmlns:xlink="http://www.w3.org/1999/xlink" x="0px" y="0px"
	 viewBox="0 0 202.288 202.288" style="enable-background:new 0 0 202.288 202.288;" xml:space="preserve">
<g>
	<path style="fill:#010002;" d="M200.326,47.229c-0.966,0-1.775,0.759-1.847,1.811c-0.179,2.724-0.451,6.839-1.027,10.944
		c-2.724,10.393-9.806,11.946-13.789,11.946c-0.816,0-1.482-0.068-1.929-0.129c-0.88-0.78-3.031-2.358-5.876-2.358
		c-0.988,0-1.976,0.19-2.938,0.565c-2.856-2.108-6.088-3.174-9.591-3.174c-9.208,0-18.009,7.383-21.953,11.209
		c-1.718-10.014-13.95-17.68-25.124-21.595C99.131,52.719,93.54,41.449,92.936,35.372l-0.626-6.385l-2.856,5.748
		c-7.609,15.35,4.23,24.708,14.688,32.961c9.165,7.24,17.078,13.496,12.261,22.625c-1.593,3.153-3.335,4.914-5.318,5.386
		c-0.358,0.082-0.741,0.122-1.134,0.122c-3.293,0-7.208-2.892-10.661-5.443c-1.313-0.973-2.799-2.083-4.287-3.006
		c-3.726-2.101-11.155-5.637-19.025-5.637c-3.98,0-7.605,0.913-10.78,2.713l-2.763,1.568l2.734,1.621
		c2.026,1.199,4.567,2.398,7.272,3.672l0.143,0.072c7.365,3.461,16.534,7.773,17.558,13.424c0.49,2.709-0.945,5.805-4.273,9.23
		c-3.872,4.055-5.823,4.66-6.646,4.66c-0.107,0-0.204-0.011-0.297-0.032c-1.621-0.372-2.852-4.112-4.051-7.755
		c-2.19-6.685-5.196-15.84-14.705-15.84c-1.074,0-2.222,0.122-3.411,0.358l-4.577,0.916l3.98,2.459
		c2.541,1.578,4.148,4.041,4.76,7.319c0.673,3.557,0.122,7.805-1.496,11.875c-0.998-11.517-4.724-21.083-18.03-29.876
		c-0.816-0.533-20.131-13.081-32.711-13.081c-1.185,0-2.283,0.118-3.278,0.336L0,76.589l5.057,2.273
		c15.632,7.025,16.416,19.981,17.236,33.702c0.186,3.106,0.379,6.338,0.802,9.581c1.396,6.41,4.857,15.364,13.46,21.641
		c3.489,2.183,7.523,3.239,11.42,4.273c3.837,1.016,7.476,1.983,10.304,3.897c-12.719,7.347-25.446,12.977-37.85,16.731
		c-0.687,0.215-1.195,0.809-1.285,1.517c-0.104,0.716,0.229,1.424,0.834,1.804c1.36,0.863,3.665,1.292,7.05,1.292h0.004
		c27.521,0,144.525-32.306,158.325-63.485c3.081-4.867,4.388-10.758,3.675-16.617c3.278-3.325,4.749-8.149,3.897-12.712
		c4.033-3.031,6.7-9.509,8.138-19.737c0.855-3.353,1.267-7.294,1.217-11.706C202.269,48.062,201.371,47.229,200.326,47.229z
		 M189.064,80.175c1.034,3.532,0.111,7.39-2.412,10.139c-6.456-3.071-10.429-13.292-11.703-17.068
		c0.329-0.082,0.633-0.118,0.909-0.118c2.101,0,3.633,1.614,3.647,1.636c0.261,0.283,0.594,0.483,0.97,0.558
		c0.225,0.047,1.435,0.293,3.192,0.293c2.487,0,6.99-0.533,10.955-3.837c-1.274,3.149-2.845,5.257-4.674,6.267
		C189.2,78.454,188.824,79.352,189.064,80.175z M142.009,82.666c0.454-0.49,11.069-12.15,21.323-12.15
		c2.817,0,5.429,0.923,7.745,2.749c0.934,3.056,5.476,16.552,14.298,20.518c0.576,5.053-0.533,9.974-3.264,14.298
		c-12.139,27.382-119.072,59.824-152.581,61.474C94.603,146.037,141.576,83.278,142.009,82.666z M39.375,91.213
		c13.754,9.094,16.473,18.757,16.67,33.401l0.075,5.375l3.242-4.287c3.468-4.595,6.564-12.895,5.189-20.256
		c-0.483-2.523-1.446-4.728-2.877-6.564c5.232,0.841,7.43,6.277,9.713,13.224c1.65,5.014,3.078,9.341,6.728,10.175
		c2.877,0.659,5.995-1.045,10.414-5.672c4.194-4.305,5.966-8.503,5.247-12.44c-1.367-7.523-11.059-12.086-19.619-16.112
		c-1.324-0.626-2.584-1.22-3.765-1.8c1.739-0.508,3.633-0.762,5.651-0.762c5.311,0,11.22,1.75,17.082,5.057
		c1.263,0.795,2.641,1.814,3.98,2.806c3.908,2.892,8.346,6.184,12.812,6.184c0.687,0,1.371-0.082,2.018-0.236
		c3.103-0.741,5.64-3.117,7.752-7.276c6.245-11.821-3.668-19.644-13.256-27.221c-8.736-6.9-17.003-13.428-15.496-22.944
		c2.23,5.175,8.403,14.677,24.311,18.127c2.545,0.895,24.701,9.097,22.461,22.235c-5.655,7.201-34.969,43.046-76.015,67.744
		c-3.647-3.046-8.496-4.327-12.862-5.476c-3.604-0.966-7.337-1.958-10.218-3.754c-7.569-5.519-10.651-13.517-11.896-19.208
		c-0.369-2.953-0.555-5.98-0.744-9.18c-0.701-11.603-1.482-24.68-13.009-33.154C21.967,80.966,33.595,87.437,39.375,91.213z"/>
</g>
<g>
</g>
<g>
</g>
<g>
</g>
<g>
</g>
<g>
</g>
<g>
</g>
<g>
</g>
<g>
</g>
<g>
</g>
<g>
</g>
<g>
</g>
<g>
</g>
<g>
</g>
<g>
</g>
<g>
</g>
</svg>
