<?xml version="1.0" encoding="iso-8859-1"?>
<!-- Generator: Adobe Illustrator 19.0.0, SVG Export Plug-In . SVG Version: 6.00 Build 0)  -->
<svg version="1.1" id="Capa_1" xmlns="http://www.w3.org/2000/svg" xmlns:xlink="http://www.w3.org/1999/xlink" x="0px" y="0px"
	 viewBox="0 0 470 470" style="enable-background:new 0 0 470 470;" xml:space="preserve">
<g>
	<path d="M385.76,124.042l-11.818-4.254l11.221-5.773c2.499-1.285,4.069-3.859,4.069-6.669V87.163h5.083c4.143,0,7.5-3.358,7.5-7.5
		s-3.357-7.5-7.5-7.5h-5.083V61.997h5.083c4.143,0,7.5-3.358,7.5-7.5V7.5c0-4.142-3.357-7.5-7.5-7.5H75.685
		c-4.142,0-7.5,3.358-7.5,7.5v46.997c0,4.142,3.358,7.5,7.5,7.5h5.083v10.167h-5.083c-4.142,0-7.5,3.358-7.5,7.5s3.358,7.5,7.5,7.5
		h5.083v20.183c0,2.81,1.57,5.383,4.068,6.669l11.22,5.774l-11.816,4.253c-16.06,5.781-28.639,23.679-28.639,40.747v272.544
		c0,18.012,14.654,32.667,32.667,32.667h293.464c18.012,0,32.666-14.654,32.666-32.667V164.789
		C414.398,147.721,401.819,129.823,385.76,124.042z M399.398,437.333c0,9.741-7.925,17.667-17.666,17.667H88.268
		c-9.741,0-17.667-7.925-17.667-17.667V164.789c0-10.599,8.748-23.044,18.719-26.634l24.964-8.986l19.458,10.013
		c2.154,1.108,4.71,1.108,6.863,0l45.476-23.401l45.479,23.401c2.155,1.109,4.71,1.108,6.863,0l45.477-23.401l45.483,23.401
		c1.077,0.554,2.254,0.831,3.432,0.831c1.177,0,2.354-0.277,3.431-0.831l19.464-10.014l24.969,8.988
		c9.972,3.589,18.719,16.035,18.719,26.634V437.333z M95.768,87.163h278.464v15.607l-41.416,21.308l-45.483-23.401
		c-2.154-1.108-4.709-1.108-6.863,0l-45.477,23.401l-45.479-23.401c-2.154-1.108-4.71-1.108-6.863,0l-45.476,23.401l-41.407-21.307
		V87.163z M83.185,46.997V15h303.631v31.997H83.185z M374.232,61.997v10.167H95.768V61.997H374.232z"/>
	<path d="M369.148,157.289H167.175c-4.142,0-7.5,3.358-7.5,7.5s3.358,7.5,7.5,7.5h201.973c4.143,0,7.5-3.358,7.5-7.5
		S373.291,157.289,369.148,157.289z"/>
	<path d="M144.675,164.789c0-4.142-3.358-7.5-7.5-7.5h-36.324c-4.142,0-7.5,3.358-7.5,7.5s3.358,7.5,7.5,7.5h36.324
		C141.317,172.289,144.675,168.931,144.675,164.789z"/>
	<path d="M334.632,215.958H135.369c-11.633,0-21.098,9.464-21.098,21.098v153.177c0,11.633,9.464,21.098,21.098,21.098h199.263
		c11.633,0,21.098-9.464,21.098-21.098V237.056C355.729,225.423,346.265,215.958,334.632,215.958z M340.729,390.233
		c0,3.362-2.735,6.098-6.098,6.098H135.369c-3.362,0-6.098-2.735-6.098-6.098V237.056c0-3.362,2.735-6.098,6.098-6.098h199.263
		c3.362,0,6.098,2.735,6.098,6.098V390.233z"/>
	<path d="M318.229,245.958h-20c-4.143,0-7.5,3.358-7.5,7.5s3.357,7.5,7.5,7.5h12.5v105.372H159.271V260.958h108.958
		c4.143,0,7.5-3.358,7.5-7.5s-3.357-7.5-7.5-7.5H151.771c-4.142,0-7.5,3.358-7.5,7.5v120.372c0,4.142,3.358,7.5,7.5,7.5h166.458
		c4.143,0,7.5-3.358,7.5-7.5V253.458C325.729,249.316,322.372,245.958,318.229,245.958z"/>
</g>
<g>
</g>
<g>
</g>
<g>
</g>
<g>
</g>
<g>
</g>
<g>
</g>
<g>
</g>
<g>
</g>
<g>
</g>
<g>
</g>
<g>
</g>
<g>
</g>
<g>
</g>
<g>
</g>
<g>
</g>
</svg>
